<?xml version="1.0" encoding="UTF-8" standalone="no"?>
<!-- Created with Inkscape (http://www.inkscape.org/) -->

<svg
   xmlns:dc="http://purl.org/dc/elements/1.1/"
   xmlns:cc="http://creativecommons.org/ns#"
   xmlns:rdf="http://www.w3.org/1999/02/22-rdf-syntax-ns#"
   xmlns:svg="http://www.w3.org/2000/svg"
   xmlns="http://www.w3.org/2000/svg"
   xmlns:sodipodi="http://sodipodi.sourceforge.net/DTD/sodipodi-0.dtd"
   xmlns:inkscape="http://www.inkscape.org/namespaces/inkscape"
   width="200"
   height="369.0256"
   id="svg2"
   version="1.1"
   inkscape:version="0.48.3.1 r9886"
   sodipodi:docname="muscular_system_back.svg">
  <defs
     id="defs4" />
  <sodipodi:namedview
     id="base"
     pagecolor="#ffffff"
     bordercolor="#666666"
     borderopacity="1.0"
     inkscape:pageopacity="0.0"
     inkscape:pageshadow="2"
     inkscape:zoom="0.7"
     inkscape:cx="420.23066"
     inkscape:cy="94.1613"
     inkscape:document-units="px"
     inkscape:current-layer="layer1"
     showgrid="false"
     fit-margin-top="0"
     fit-margin-left="0"
     fit-margin-right="0"
     fit-margin-bottom="0"
     inkscape:window-width="844"
     inkscape:window-height="577"
     inkscape:window-x="318"
     inkscape:window-y="157"
     inkscape:window-maximized="0" />
  <metadata
     id="metadata7">
    <rdf:RDF>
      <cc:Work
         rdf:about="">
        <dc:format>image/svg+xml</dc:format>
        <dc:type
           rdf:resource="http://purl.org/dc/dcmitype/StillImage" />
        <dc:title></dc:title>
      </cc:Work>
    </rdf:RDF>
  </metadata>
  <g
     inkscape:label="Ebene 1"
     inkscape:groupmode="layer"
     id="layer1"
     transform="translate(-54.28571,-335.71932)">
    <!-- Muscle 5 -->
    <path
       style="opacity:0.52424239;fill:#fc0000;fill-opacity:1;stroke:none;display:inline"
       d="m 191.55063,438.91472 c -0.3625,2.35132 -0.62211,10.687 0.0856,13.02164 3.8465,9.09699 3.62452,11.21449 7.14787,12.86388 6.10219,2.85662 4.81236,1.08698 6.92525,0.15576 2.05497,-0.9057 4.7139,-2.75842 4.43256,-5.07359 -0.87122,-7.16941 1.00012,-14.25906 -1.07998,-20.8601 -16.47188,-16.75749 -16.00743,-10.16063 -17.51127,-0.10759 z"
       id="path2992-9-5"
       class="muscle-5"
       inkscape:connector-curvature="0"
       sodipodi:nodetypes="ccsascc" />
    <path
       style="opacity:0.52424239;fill:#fc0000;fill-opacity:1;stroke:none;display:inline"
       d="m 116.92894,439.13084 c 0.3625,2.35132 0.62211,10.687 -0.0856,13.02164 -3.8465,9.09699 -3.62452,11.21449 -7.14787,12.86388 -6.10219,2.85662 -4.81236,1.08698 -6.92525,0.15576 -2.05497,-0.9057 -4.713898,-2.75842 -4.432558,-5.07359 0.87122,-7.16941 -1.00012,-14.25906 1.07998,-20.8601 16.471878,-16.75749 16.007428,-10.16063 17.511268,-0.10759 z"
       id="path2992-9-5-1"
       class="muscle-5"
       inkscape:connector-curvature="0"
       sodipodi:nodetypes="ccsascc" />
    <!-- Muscle 7 -->
    <path
       style="opacity:0.52424239;fill:#fc0000;fill-opacity:1;stroke:none;display:inline"
       d="m 157.84649,628.07391 c 0.18417,4.50671 0.628,11.65178 1.91202,17.31467 0.83063,3.6633 2.37474,5.09284 3.71512,10.63888 2.14383,8.8704 -0.81431,29.19307 0.0245,29.59121 1.58892,0.91978 1.82319,-0.28511 2.39951,-0.91864 4.22119,-4.64016 2.74914,-12.29168 5.04025,-18.13123 2.62168,-6.6821 4.96173,-6.44129 9.87964,-19.13389 0.41377,-4.25735 2.33285,-10.64845 2.50529,-16.06563 0.14015,-4.40301 -0.21634,-10.77342 -1.20169,-13.16097 -0.0822,-3.20813 -7.17121,-16.98878 -9.34382,-18.55787 -2.55028,-0.64249 -5.10933,-3.66092 -6.58544,-1.63796 -3.4339,1.48689 -3.36742,1.68575 -4.67162,4.03725 -2.30927,4.16367 -0.88234,14.44818 -3.67374,26.02418 z"
       id="path2992-9-5"
       class="muscle-7"
       inkscape:connector-curvature="0"
       sodipodi:nodetypes="cascaacacccsc" />
    <path
       style="opacity:0.52424239;fill:#fc0000;fill-opacity:1;stroke:none;display:inline"
       d="m 151.38626,628.55089 c -0.18417,4.50671 -0.628,11.65178 -1.91202,17.31467 -0.83063,3.6633 -2.37474,5.09284 -3.71512,10.63888 -2.14383,8.8704 0.81431,29.19307 -0.0245,29.59121 -1.58892,0.91978 -1.82319,-0.28511 -2.39951,-0.91864 -4.22119,-4.64016 -2.74914,-12.29168 -5.04025,-18.13123 -2.62168,-6.6821 -4.96173,-6.44129 -9.87964,-19.13389 -0.41377,-4.25735 -2.33285,-10.64845 -2.50529,-16.06563 -0.14015,-4.40301 0.21634,-10.77342 1.20169,-13.16097 0.0822,-3.20813 7.17121,-16.98878 9.34382,-18.55787 2.55028,-0.64249 5.10933,-3.66092 6.58544,-1.63796 3.4339,1.48689 3.36742,1.68575 4.67162,4.03725 2.30927,4.16367 0.88234,14.44818 3.67374,26.02418 z"
       id="path2992-9-5-1"
       class="muscle-7"
       inkscape:connector-curvature="0"
       sodipodi:nodetypes="cascaacacccsc" />
    <!-- Muscle 8 -->
    <path
       style="opacity:0.52424239;fill:#fc0000;fill-opacity:1;stroke:none;display:inline"
       d="m 164.02666,497.12852 c -1.55631,1.52025 -1.56504,4.09871 -2.31396,6.16047 -1.07519,2.95998 -2.07652,5.94628 -3.12871,8.91451 -0.94527,2.6666 -2.81581,5.50344 -2.86083,7.99088 -0.12727,7.03248 5.37882,9.33869 8.71656,12.20652 3.33774,2.86783 6.9498,5.51311 9.32708,7.83922 2.37728,2.32611 6.07419,4.2694 9.30355,7.71468 2.2591,2.41015 4.83843,5.12955 5.17102,9.6188 0.46426,6.26654 -1.41009,15.04789 -0.92068,14.42208 3.2937,-4.21159 5.83554,-31.16875 4.06336,-40.6264 -0.62961,-3.36009 -0.57506,-9.6715 -2.31541,-14.10789 -2.41369,-6.1528 -6.45379,-11.68558 -10.94915,-16.53062 -2.83801,-3.05877 -7.71744,-6.10426 -9.89005,-7.67335 -2.55028,-0.64249 -2.72663,2.0481 -4.20274,4.07106 z"
       id="path2992-9-5"
       class="muscle-8"
       inkscape:connector-curvature="0"
       sodipodi:nodetypes="caaszzssssaaccc" />
    <path
       style="opacity:0.52424239;fill:#fc0000;fill-opacity:1;stroke:none;display:inline"
       d="m 144.10239,497.59374 c 1.55631,1.52025 1.56504,4.09871 2.31396,6.16047 1.07519,2.95998 2.07652,5.94628 3.12871,8.91451 0.94527,2.6666 2.81581,5.50344 2.86083,7.99088 0.12727,7.03248 -5.37882,9.33869 -8.71656,12.20652 -3.33774,2.86783 -6.9498,5.51311 -9.32708,7.83922 -2.37728,2.32611 -6.07419,4.2694 -9.30355,7.71468 -2.2591,2.41015 -4.83843,5.12955 -5.17102,9.6188 -0.46426,6.26654 1.41009,15.04789 0.92068,14.42208 -3.2937,-4.21159 -5.83554,-31.16875 -4.06336,-40.6264 0.62961,-3.36009 0.57506,-9.6715 2.31541,-14.10789 2.41369,-6.1528 6.45379,-11.68558 10.94915,-16.53062 2.83801,-3.05877 7.71744,-6.10426 9.89005,-7.67335 2.55028,-0.64249 2.72663,2.0481 4.20274,4.07106 z"
       id="path2992-9-5-8"
       class="muscle-8"
       inkscape:connector-curvature="0"
       sodipodi:nodetypes="caaszzssssaaccc" />
    <!-- Muscle 9 -->
    <path
       style="opacity:0.52424239;fill:#fc0000;fill-opacity:1;stroke:none;display:inline"
       d="m 133.87398,415.10147 c 3.8465,9.09699 4.87096,25.50048 14.82644,36.25673 -0.0143,-4.0028 1.59476,-25.62206 1.53638,-26.52497 -0.87122,-7.16941 0.64298,-37.65192 -1.43712,-44.25296 -2.73371,-2.7811 -1.12578,-1.74427 -2.21898,-0.14255 -6.90139,10.11167 -15.08205,15.48176 -25.82801,19.49925 6.10446,3.54937 10.82182,8.1217 13.12129,15.1645 z"
       id="path2992-9-5"
       class="muscle-9"
       inkscape:connector-curvature="0"
       sodipodi:nodetypes="ccccscc" />
    <path
       style="opacity:0.52424239;fill:#fc0000;fill-opacity:1;stroke:none;display:inline"
       d="m 176.08582,415.27863 c -3.8465,9.09699 -4.87096,25.50048 -14.82644,36.25673 0.0143,-4.0028 -1.59476,-25.62206 -1.53638,-26.52497 0.87122,-7.16941 -0.64298,-37.65192 1.43712,-44.25296 2.73371,-2.7811 1.12578,-1.74427 2.21898,-0.14255 6.90139,10.11167 15.08205,15.48176 25.82801,19.49925 -6.10446,3.54937 -10.82182,8.1217 -13.12129,15.1645 z"
       id="path2992-9-5-7"
       class="muscle-9"
       inkscape:connector-curvature="0"
       sodipodi:nodetypes="ccccscc" />
    <!-- Muscle 11 -->
    <path
       sodipodi:nodetypes="cssszaasc"
       inkscape:connector-curvature="0"
       id="path2992"
       class="muscle-11"
       d="m 130.51664,546.66621 c -1.66702,1.72091 -0.65329,16.56398 -1.14987,25.85942 -0.5571,10.42819 0.18952,12.74549 -0.9515,20.90616 -0.31685,2.26616 -0.30386,10.17471 -0.34789,13.55358 -0.0626,4.80798 2.35335,-0.5011 3.82493,-2.87947 1.47158,-2.37837 2.69818,-7.33515 3.36845,-11.16394 1.27278,-7.27057 1.14177,-14.73063 1.18563,-22.11163 0.0476,-8.01178 0.20419,-20.55143 -1.00165,-24.01487 -1.58244,-4.54509 -4.72596,-0.44295 -4.9281,-0.14925 z"
       style="opacity:0.52424239;fill:#fc0000;fill-opacity:1;stroke:none" />
    <path
       sodipodi:nodetypes="cssszaasc"
       inkscape:connector-curvature="0"
       id="path2992-7"
       class="muscle-11"
       d="m 178.26043,546.55155 c 1.66702,1.72091 0.65329,16.56398 1.14987,25.85942 0.5571,10.42819 -0.18952,12.74549 0.9515,20.90616 0.31685,2.26616 0.30386,10.17471 0.34789,13.55358 0.0626,4.80798 -2.35335,-0.5011 -3.82493,-2.87947 -1.47158,-2.37837 -2.69818,-7.33515 -3.36845,-11.16394 -1.27278,-7.27057 -1.14177,-14.73063 -1.18563,-22.11163 -0.0476,-8.01178 -0.20419,-20.55143 1.00165,-24.01487 1.58244,-4.54509 4.72596,-0.44295 4.9281,-0.14925 z"
       style="opacity:0.52424239;fill:#fc0000;fill-opacity:1;stroke:none" />
    <!-- Muscle 12 -->
    <path
       sodipodi:nodetypes="csscccsc"
       inkscape:connector-curvature="0"
       id="path2992"
       class="muscle-12"
       d="m 118.2971,433.23148 c -1.66702,1.72091 -0.41996,16.06091 0.11282,25.35434 0.45305,7.90281 5.37207,13.58301 8.39241,16.86555 2.6401,2.86931 4.24182,4.87141 5.96556,7.99774 6.27792,-6.98998 11.67715,-13.36645 14.51699,-25.40762 1.45421,-8.08311 -1.34647,-9.50395 -9.16844,-22.86925 -6.82053,0.62685 -8.3821,1.67193 -13.12348,0.48133 -4.66777,-1.17211 -3.96834,-2.71579 -6.69586,-2.42209 z"
       style="opacity:0.52424239;fill:#fc0000;fill-opacity:1;stroke:none" />
    <path
       sodipodi:nodetypes="csscccsc"
       inkscape:connector-curvature="0"
       id="path2992-7"
       class="muscle-12"
       d="m 190.2688,433.68217 c 1.66702,1.72091 0.41996,16.06091 -0.11282,25.35434 -0.45305,7.90281 -5.37207,13.58301 -8.39241,16.86555 -2.6401,2.86931 -4.24182,4.87141 -5.96556,7.99774 -6.27792,-6.98998 -11.67715,-13.36645 -14.51699,-25.40762 -1.45421,-8.08311 1.34647,-9.50395 9.16844,-22.86925 6.82053,0.62685 8.3821,1.67193 13.12348,0.48133 4.66777,-1.17211 3.96834,-2.71579 6.69586,-2.42209 z"
       style="opacity:0.52424239;fill:#fc0000;fill-opacity:1;stroke:none" />
    <!-- Muscle 15 -->
    <path
       style="opacity:0.52424239;fill:#fc0000;fill-opacity:1;stroke:none;display:inline"
       d="m 138.64274,667.76525 c 1.92234,6.09379 2.43161,13.69837 2.93313,19.74399 -1.91818,-6.10327 -5.62207,-11.84939 -7.54025,-17.95266 -1.74736,-6.91174 -4.03043,-15.25206 -5.77779,-22.1638 3.16402,6.96939 6.49829,15.35011 10.38491,20.37247 z"
       id="path2992-9-5-1-4"
       class="muscle-15"
       inkscape:connector-curvature="0"
       sodipodi:nodetypes="ccccc" />
    <path
       style="opacity:0.52424239;fill:#fc0000;fill-opacity:1;stroke:none;display:inline"
       d="m 170.38125,667.76525 c -1.92234,6.09379 -2.43161,13.69837 -2.93313,19.74399 1.91818,-6.10327 5.62207,-11.84939 7.54025,-17.95266 1.74736,-6.91174 4.03043,-15.25206 5.77779,-22.1638 -3.16402,6.96939 -6.49829,15.35011 -10.38491,20.37247 z"
       id="path2992-9-5-1-4-3"
       class="muscle-15"
       inkscape:connector-curvature="0"
       sodipodi:nodetypes="ccccc" />
    <!-- Muscle 16 (Erector Spinae)-->
    <!-- Not exist -->
  </g>
</svg>
