<?xml version="1.0" encoding="UTF-8" standalone="no"?>
<!-- Created with Inkscape (http://www.inkscape.org/) -->

<svg
   xmlns:dc="http://purl.org/dc/elements/1.1/"
   xmlns:cc="http://creativecommons.org/ns#"
   xmlns:rdf="http://www.w3.org/1999/02/22-rdf-syntax-ns#"
   xmlns:svg="http://www.w3.org/2000/svg"
   xmlns="http://www.w3.org/2000/svg"
   xmlns:sodipodi="http://sodipodi.sourceforge.net/DTD/sodipodi-0.dtd"
   xmlns:inkscape="http://www.inkscape.org/namespaces/inkscape"
   width="200"
   height="362"
   id="svg2"
   version="1.1"
   inkscape:version="0.48.3.1 r9886"
   sodipodi:docname="Muscular_system-small.svg">
  <defs
     id="defs4" />
  <sodipodi:namedview
     id="base"
     pagecolor="#ffffff"
     bordercolor="#666666"
     borderopacity="1.0"
     inkscape:pageopacity="0.0"
     inkscape:pageshadow="2"
     inkscape:zoom="1.979899"
     inkscape:cx="155.35481"
     inkscape:cy="205.55431"
     inkscape:document-units="px"
     inkscape:current-layer="layer1"
     showgrid="false"
     fit-margin-top="0"
     fit-margin-left="0"
     fit-margin-right="0"
     fit-margin-bottom="0"
     inkscape:window-width="954"
     inkscape:window-height="767"
     inkscape:window-x="714"
     inkscape:window-y="135"
     inkscape:window-maximized="0" />
  <metadata
     id="metadata7">
    <rdf:RDF>
      <cc:Work
         rdf:about="">
        <dc:format>image/svg+xml</dc:format>
        <dc:type
           rdf:resource="http://purl.org/dc/dcmitype/StillImage" />
        <dc:title></dc:title>
      </cc:Work>
    </rdf:RDF>
  </metadata>
  <g
     inkscape:label="Ebene 1"
     inkscape:groupmode="layer"
     id="layer1"
     transform="translate(-395.71431,-323.50506)">
     <!-- Muscle 1 -->
    <path
       sodipodi:nodetypes="caazccsc"
       inkscape:connector-curvature="0"
       id="path2992"
       d="m 531.54658,419.32035 c -1.66702,1.72091 -1.36035,8.07119 -0.96047,12.0961 0.48201,4.85145 1.48196,9.89493 4.00392,14.0673 1.93253,3.19721 5.88888,6.82248 8.11807,7.72711 2.22918,0.90463 3.49786,-6.77307 2.98965,-9.2699 -0.0486,-4.08929 0.0901,-8.62941 -0.70841,-14.0304 -0.85269,-5.60328 -2.91091,-8.13876 -5.79988,-10.75663 -1.88829,-1.7111 -6.11492,-2.96833 -7.64288,0.16642 z"
       style="opacity:0.52424239;fill:#fc0000;fill-opacity:1;stroke:none" />
    <path
       sodipodi:nodetypes="caazccsc"
       inkscape:connector-curvature="0"
       id="path2992-9"
       d="m 456.65005,420.35548 c 1.66702,1.72091 1.36035,8.07119 0.96047,12.0961 -0.48201,4.85145 -1.48196,9.89493 -4.00392,14.0673 -1.93253,3.19721 -5.88888,6.82248 -8.11807,7.72711 -2.22918,0.90463 -3.49786,-6.77307 -2.98965,-9.2699 0.0486,-4.08929 -0.0901,-8.62941 0.70841,-14.0304 0.85269,-5.60328 2.91091,-8.13876 5.79988,-10.75663 1.88829,-1.7111 6.11492,-2.96833 7.64288,0.16642 z"
       style="opacity:0.52424239;fill:#fc0000;fill-opacity:1;stroke:none" />
    <!-- Muscle 2 -->
    <path
       sodipodi:nodetypes="caazccac"
       inkscape:connector-curvature="0"
       id="path2992"
       d="m 518.74726,391.26389 c -1.66702,1.72091 4.14667,4.86002 6.04747,7.42414 2.14217,2.88973 3.84239,6.09351 6.02422,8.9534 3.14045,4.11642 7.90919,10.8631 10.13838,11.76773 2.22918,0.90463 2.61397,1.68695 2.10576,-0.80988 -0.0486,-4.08929 0.46888,-10.39718 -0.3296,-15.79817 -0.85269,-5.60328 -4.22913,-9.95851 -8.70407,-12.14559 -4.58031,-2.23858 -15.08002,0.31467 -15.28216,0.60837 z"
       style="opacity:0.52424239;fill:#fc0000;fill-opacity:1;stroke:none" />
    <path
       sodipodi:nodetypes="caazccac"
       inkscape:connector-curvature="0"
       id="path2992-1"
       d="m 469.94763,392.44977 c 1.66702,1.72091 -4.14667,4.86002 -6.04747,7.42414 -2.14217,2.88973 -3.84239,6.09351 -6.02421,8.9534 -3.14045,4.11642 -7.9092,10.8631 -10.13838,11.76773 -2.22919,0.90463 -2.61397,1.68695 -2.10577,-0.80988 0.0486,-4.08929 -0.46888,-10.39718 0.32961,-15.79817 0.85269,-5.60328 4.22913,-9.95851 8.70407,-12.14559 4.58031,-2.23858 15.08001,0.31467 15.28215,0.60837 z"
       style="opacity:0.52424239;fill:#fc0000;fill-opacity:1;stroke:none" />
    <!-- Muscle 3 -->
    <path
       sodipodi:nodetypes="cssssssscccc"
       inkscape:connector-curvature="0"
       id="path2992"
       d="m 517.82599,424.19421 c -0.48916,0.78934 2.89077,0.99122 2.70983,1.91809 -0.17283,0.88532 -2.52633,2.44538 -2.55228,3.56965 -0.0273,1.18223 2.40506,-0.0843 2.45526,1.13441 0.0477,1.15763 -3.74052,6.13027 -3.69954,7.11544 0.0605,1.45328 4.6749,0.46385 4.5579,2.23717 -0.12135,1.83909 -3.52179,5.11873 -3.42929,6.81101 0.0926,1.6943 1.9109,0.79061 2.63119,1.83626 0.43784,0.63563 -0.48538,3.50418 0.30725,3.75107 2.72142,-4.80332 7.36232,-10.43996 6.94084,-12.65447 -0.16995,-2.23726 1.64472,-16.08653 -0.88932,-18.59985 -2.0865,0.41346 -6.01996,1.94692 -9.03184,2.88122 z"
       style="opacity:0.52424239;fill:#fc0000;fill-opacity:1;stroke:none" />
    <path
       sodipodi:nodetypes="cssssssscccc"
       inkscape:connector-curvature="0"
       id="path2992-3"
       d="m 468.06573,428.23907 c 0.48916,0.78934 -4.09033,1.05436 -3.90939,1.98123 0.17283,0.88532 2.96828,3.51866 2.99423,4.64293 0.0273,1.18223 -3.66776,-0.39997 -3.71796,0.81874 -0.0477,1.15763 4.37187,6.95102 4.33089,7.93619 -0.0605,1.45328 -3.28594,-3.00855 -3.16894,-1.23523 0.12135,1.83909 2.4485,5.75008 2.356,7.44236 -0.0926,1.6943 -0.83761,0.15926 -1.5579,1.20491 -0.43784,0.63563 0.48538,3.50418 -0.30725,3.75107 -2.72142,-4.80332 -7.36232,-10.43996 -6.94084,-12.65447 0.16995,-2.23726 -1.64472,-16.08653 0.88932,-18.59985 1.70769,0.666 6.01996,3.77782 9.03184,4.71212 z"
       style="opacity:0.52424239;fill:#fc0000;fill-opacity:1;stroke:none" />
  </g>
</svg>

